<?xml version="1.0" standalone="no"?>
<!DOCTYPE svg PUBLIC "-//W3C//DTD SVG 20010904//EN"
 "http://www.w3.org/TR/2001/REC-SVG-20010904/DTD/svg10.dtd">
<svg version="1.0" xmlns="http://www.w3.org/2000/svg"
 width="460.000000pt" height="460.000000pt" viewBox="0 0 460.000000 460.000000"
 preserveAspectRatio="xMidYMid meet">

<g transform="translate(0.000000,460.000000) scale(0.100000,-0.100000)"
fill="#000000" stroke="none">
<path d="M2235 3370 c-53 -46 -130 -100 -142 -100 -5 0 -38 -15 -73 -32 -95
-48 -136 -64 -225 -87 -44 -11 -120 -32 -170 -45 -49 -13 -137 -32 -195 -41
-58 -9 -115 -19 -128 -21 l-23 -5 4 -522 3 -522 26 -100 c24 -94 51 -154 116
-266 34 -58 151 -180 229 -237 77 -57 289 -180 325 -187 15 -4 30 -11 34 -16
3 -6 29 -21 57 -34 29 -13 63 -30 77 -38 78 -43 132 -67 151 -67 11 0 37 9 57
19 20 11 73 37 117 59 44 22 94 47 110 56 17 8 50 25 75 36 87 39 307 184 370
243 39 38 117 134 135 167 89 165 94 178 120 311 l25 134 -2 485 -3 485 -75 8
c-88 8 -266 46 -365 76 -38 12 -92 28 -120 35 -61 15 -243 99 -305 140 -25 16
-65 47 -89 68 -24 21 -50 38 -57 38 -7 0 -33 -18 -59 -40z m105 -25 c64 -63
258 -159 430 -214 187 -59 242 -72 385 -90 l130 -16 3 -420 c3 -465 -6 -647
-40 -746 -55 -162 -169 -332 -280 -416 -75 -57 -152 -109 -183 -125 -16 -8
-72 -38 -123 -66 -50 -29 -96 -52 -100 -52 -5 0 -42 -18 -83 -40 -41 -22 -98
-52 -127 -65 l-54 -25 -56 29 c-567 288 -537 269 -696 427 -76 76 -100 108
-144 193 -29 55 -59 129 -67 164 -23 100 -30 294 -27 733 l2 411 108 12 c278
32 695 183 821 298 25 23 50 42 56 43 5 0 25 -16 45 -35z"/>
<path d="M2255 3267 c-48 -37 -132 -86 -183 -106 -26 -10 -85 -35 -132 -55
-88 -38 -360 -110 -490 -130 l-75 -11 -3 -425 c-3 -456 1 -524 45 -663 27 -85
75 -191 93 -202 5 -3 26 -30 46 -60 20 -30 39 -55 42 -55 4 0 34 -26 67 -57
33 -30 71 -61 85 -67 23 -10 78 -44 140 -86 14 -10 37 -21 50 -25 14 -4 68
-31 120 -60 52 -29 106 -55 120 -60 14 -4 47 -20 73 -36 l48 -29 44 30 c24 16
50 30 57 30 7 0 61 27 119 59 59 32 117 62 130 66 13 4 52 24 86 44 35 20 83
47 108 61 50 29 205 174 205 192 0 6 11 23 24 37 60 66 113 218 136 394 5 39
10 259 10 488 l0 417 -89 16 c-49 9 -142 30 -207 46 -65 17 -125 30 -134 30
-8 0 -64 21 -125 46 -60 25 -128 53 -150 61 -22 9 -77 40 -121 70 -45 29 -88
55 -95 58 -8 3 -27 -5 -44 -18z m152 -453 c40 -17 59 -34 87 -76 37 -55 42
-84 38 -200 l-2 -58 -40 0 -40 0 0 75 c0 94 -15 132 -71 176 -57 45 -109 47
-163 5 -62 -47 -76 -79 -76 -173 l0 -83 -39 0 -39 0 -7 83 c-7 93 0 119 48
181 44 56 53 63 122 85 68 23 104 20 182 -15z m-436 -363 c14 -9 42 -27 62
-39 l37 -24 0 -97 0 -98 51 -32 c28 -17 54 -31 59 -31 4 0 32 -16 61 -37 l53
-36 30 18 c17 11 54 31 81 45 28 14 67 36 88 49 l37 23 0 98 0 97 58 41 c32
22 70 44 85 47 l27 7 0 -321 0 -321 -107 -55 c-60 -31 -150 -81 -201 -112 -81
-48 -96 -54 -115 -44 -76 40 -131 72 -145 84 -10 8 -62 38 -117 67 -109 56
-123 69 -120 103 1 12 3 152 4 310 l1 288 23 -6 c12 -4 34 -15 48 -24z"/>
</g>
</svg>
